PathFileType	4	(X/Y/Z)	Walk10.trc
DataRate	CameraRate	NumFrames	NumMarkers	Units	OrigDataRate	OrigDataStartFrame	OrigNumFrames
200.000000	200.000000	8	60	mm	200.000000	266	568
Frame#	Times		LFHD		RFHD		CLAV		STRN		LASI		RASI		RACR1		RUA1		RElbow		RFA1		RWRR		RWRU		RCAR		LACR1		LUA1		LElbow		LFA1		LWRR		LWRU		LCAR		RTH2		RTB1		RTB2		LTH1		LTH3		LTH2		LLFC		LMFC		LTB1		LTB2		LTB4		LMT1		RTB4		LTB3		RTH3		RTB3		LToe		RMFC		LTH4		RElbowM		RTH4		RToe		RTH1		RMT1		RMMAL		RLFC		LBHD		RCAL		RBack		LMT5		RLMAL		RPSI		LMMAL		T10		C7		LPSI		LLMAL		LElbowM		LCAL		RBHD
			X1	Y1	Z1	X2	Y2	Z2	X3	Y3	Z3	X4	Y4	Z4	X5	Y5	Z5	X6	Y6	Z6	X7	Y7	Z7	X8	Y8	Z8	X9	Y9	Z9	X10	Y10	Z10	X11	Y11	Z11	X12	Y12	Z12	X13	Y13	Z13	X14	Y14	Z14	X15	Y15	Z15	X16	Y16	Z16	X17	Y17	Z17	X18	Y18	Z18	X19	Y19	Z19	X20	Y20	Z20	X21	Y21	Z21	X22	Y22	Z22	X23	Y23	Z23	X24	Y24	Z24	X25	Y25	Z25	X26	Y26	Z26	X27	Y27	Z27	X28	Y28	Z28	X29	Y29	Z29	X30	Y30	Z30	X31	Y31	Z31	X32	Y32	Z32	X33	Y33	Z33	X34	Y34	Z34	X35	Y35	Z35	X36	Y36	Z36	X37	Y37	Z37	X38	Y38	Z38	X39	Y39	Z39	X40	Y40	Z40	X41	Y41	Z41	X42	Y42	Z42	X43	Y43	Z43	X44	Y44	Z44	X45	Y45	Z45	X46	Y46	Z46	X47	Y47	Z47	X48	Y48	Z48	X49	Y49	Z49	X50	Y50	Z50	X51	Y51	Z51	X52	Y52	Z52	X53	Y53	Z53	X54	Y54	Z54	X55	Y55	Z55	X56	Y56	Z56	X57	Y57	Z57	X58	Y58	Z58	X59	Y59	Z59	X60	Y60	Z60

266	1.33	-279.66	1643.1	-84.218	-283.27	1655.6	14.511	-279.31	1397.7	-2.2803	-208.47	1243.6	13.521	-313.08	975.65	-161.66	-334.4	980.34	193.57	-407.11	1493.5	155.61	-436.61	1331.2	281.49	-425.43	1185.4	337.1	-369.03	1044.8	351.47	-325.27	933.92	280.53	-333.23	937.35	361.93	-279.94	865.3	329.85	-386.09	1446	-191.98	-429.55	1271.5	-269.82	-457.19	1108	-311.42	-441.85	967.94	-318.99	-392.08	845.08	-258.07	-441.07	828.46	-311.65	-384.38	759.28	-292.67	-359.71	679.56	217.64	-462.08	356.21	143.88	-550.68	324.98	190.75	-333.13	760.62	-186.34	-286.51	598.07	-158.93	-256.11	697.93	-155.44	-287.05	513.68	-156.59	-270.89	510.67	0.45215	-214.59	395.66	-88.942	-248.62	304.14	-125.83	-221.91	313.38	-70.258	-172.52	36.827	-40.269	-536.63	312.62	132.67	-237.2	228.5	-54.469	-404.82	585.37	225.57	-610.23	269.02	121.05	-120.76	31.601	-76.695	-412.16	476.08	63.873	-311.22	679.94	-172.33	-464.27	1108.6	238.31	-416.03	670.41	229.11	-708.53	37.596	121.84	-428.64	756.36	232.45	-729.04	79.06	80.826	-741.29	223.85	58.695	-430.44	482.72	219.57	-429.56	1565.1	-93.035	-822.98	278.3	92.732	-547.68	1366.9	103.6	-237.5	25.903	-119.86	-775.08	243.88	142.78	-586.13	1015.3	31.716	-308.48	83.125	28.195	-540.47	1158.2	2.1107	-475.91	1473.4	-19.135	-567.1	1026	-51.814	-334.05	74.221	-57.761	-519.34	1060.3	-211.94	-384.88	47.294	-1.2441	-421.47	1587.5	51.167
267	1.335	-273.37	1644.3	-84.138	-276.92	1656.6	14.596	-273.14	1398.7	-2.4946	-202.4	1244.5	12.91	-307.27	976.81	-162.33	-328.29	981.38	193.12	-400.83	1494.3	155.63	-430.61	1331.8	281.21	-419.7	1185.9	336.71	-364.26	1044.8	351.31	-321.15	933.49	280.67	-329.28	937.12	362.04	-276.41	864.69	330.25	-380	1447.3	-192.15	-422.69	1272.7	-270.33	-449.17	1109.1	-312.37	-432.64	969.18	-320.13	-381.49	846.78	-259.6	-430.54	829.73	-312.96	-372.73	761.33	-294.51	-349.22	681.76	217.5	-448.31	358.06	143.79	-536.72	326.46	190.75	-328.78	761	-186.77	-283.53	598.07	-159.25	-252.3	697.65	-155.76	-284.75	513.6	-156.82	-269.02	510.48	0.18441	-213.03	395.15	-89.102	-247.42	303.76	-125.96	-220.72	312.93	-70.367	-172.52	36.827	-40.329	-522.78	314.37	132.56	-236.4	228.13	-54.523	-393.03	586.97	225.58	-596.3	270.67	120.9	-120.63	31.308	-76.861	-399.29	477.78	64.002	-307.55	680.19	-172.72	-458.91	1109.2	237.97	-405.42	671.85	228.94	-692.8	39.453	122.15	-419.22	757.62	232.12	-713.57	80.827	81.205	-727.36	225.27	58.815	-417.19	484.38	219.71	-423.35	1566.3	-92.946	-809.57	278.98	93.04	-541.5	1367.9	103.26	-237.53	25.885	-119.92	-761.07	244.98	142.98	-579.94	1016.3	31.335	-308.3	83.12	28.219	-534.33	1159.3	1.6331	-469.7	1474.6	-19.136	-561.26	1027.3	-52.175	-333.9	74.267	-57.729	-510.97	1060.6	-212.89	-384.82	47.399	-1.1668	-415.13	1588.6	51.373
268	1.34	-267.11	1645.5	-84.009	-270.58	1657.6	14.731	-266.99	1399.7	-2.6708	-196.35	1245.5	12.344	-301.49	977.96	-163	-322.22	982.42	192.76	-394.59	1495.1	155.68	-424.6	1332.4	280.95	-413.99	1186.4	336.35	-359.52	1044.9	351.19	-317.05	933.07	280.84	-325.39	936.89	362.17	-272.91	864.1	330.67	-373.93	1448.6	-192.29	-415.85	1274	-270.81	-441.1	1110.1	-313.32	-423.36	970.44	-321.26	-370.85	848.51	-261.11	-419.91	831.02	-314.28	-361.06	763.39	-296.27	-338.78	684.08	217.37	-434.46	359.96	143.69	-522.64	327.87	190.74	-324.5	761.36	-187.2	-280.63	598.07	-159.57	-248.56	697.35	-156.1	-282.52	513.52	-157.05	-267.19	510.3	-0.083844	-211.52	394.66	-89.271	-246.27	303.39	-126.1	-219.58	312.49	-70.485	-172.51	36.825	-40.396	-508.78	316.03	132.45	-235.64	227.77	-54.587	-381.31	588.7	225.57	-582.13	272.12	120.75	-120.51	31.026	-77.036	-386.49	479.57	64.124	-303.94	680.45	-173.11	-453.6	1109.8	237.64	-394.88	673.4	228.75	-676.33	41.168	122.43	-409.85	758.97	231.78	-697.49	82.271	81.549	-713.09	226.28	58.878	-403.99	486.17	219.83	-417.15	1567.7	-92.815	-795.93	279.1	93.242	-535.35	1368.8	102.95	-237.56	25.864	-119.98	-746.78	245.62	143.1	-573.76	1017.4	30.982	-308.12	83.118	28.243	-528.21	1160.5	1.1608	-463.5	1475.8	-19.108	-555.45	1028.5	-52.506	-333.76	74.317	-57.696	-502.58	1060.9	-213.88	-384.75	47.505	-1.0868	-408.82	1589.7	51.637
269	1.345	-260.86	1646.7	-83.835	-264.26	1658.6	14.915	-260.87	1400.7	-2.8107	-190.33	1246.4	11.823	-295.75	979.12	-163.67	-316.2	983.48	192.51	-388.37	1495.8	155.75	-418.58	1333	280.73	-408.3	1186.8	336.01	-354.84	1044.9	351.09	-312.98	932.66	281.04	-321.54	936.65	362.33	-269.44	863.53	331.13	-367.88	1450	-192.41	-409.03	1275.2	-271.28	-432.99	1111.2	-314.26	-413.99	971.72	-322.4	-360.17	850.27	-262.58	-409.2	832.34	-315.62	-349.37	765.47	-297.96	-328.42	686.49	217.24	-420.52	361.88	143.61	-508.45	329.21	190.71	-320.29	761.71	-187.63	-277.8	598.06	-159.89	-244.88	697.05	-156.45	-280.36	513.44	-157.27	-265.41	510.12	-0.34963	-210.06	394.18	-89.449	-245.17	303.03	-126.24	-218.48	312.06	-70.61	-172.51	36.823	-40.468	-494.63	317.6	132.35	-234.9	227.42	-54.66	-369.65	590.54	225.54	-567.73	273.35	120.61	-120.41	30.756	-77.219	-373.78	481.45	64.241	-300.4	680.69	-173.5	-448.34	1110.3	237.34	-384.39	675.05	228.56	-659.16	42.719	122.68	-400.54	760.39	231.45	-680.82	83.386	81.866	-698.49	226.86	58.889	-390.86	488.05	219.92	-410.97	1569	-92.645	-782.06	278.65	93.342	-529.22	1369.8	102.67	-237.6	25.841	-120.04	-732.23	245.79	143.13	-567.59	1018.4	30.654	-307.95	83.12	28.265	-522.1	1161.6	0.69149	-457.32	1476.9	-19.055	-549.66	1029.8	-52.812	-333.62	74.37	-57.661	-494.17	1061.3	-214.91	-384.69	47.614	-1.0042	-402.52	1590.8	51.952
270	1.35	-254.62	1647.9	-83.617	-257.96	1659.6	15.144	-254.77	1401.7	-2.9161	-184.32	1247.3	11.348	-290.05	980.27	-164.33	-310.21	984.54	192.34	-382.17	1496.6	155.83	-412.55	1333.5	280.53	-402.63	1187.3	335.69	-350.2	1044.9	351.02	-308.93	932.26	281.26	-317.75	936.41	362.5	-266.01	862.97	331.61	-361.85	1451.3	-192.51	-402.23	1276.4	-271.73	-424.83	1112.3	-315.2	-404.55	973.03	-323.53	-349.45	852.08	-264.02	-398.39	833.71	-316.97	-337.65	767.57	-299.57	-318.12	688.98	217.12	-406.52	363.82	143.54	-494.17	330.47	190.67	-316.14	762.03	-188.06	-275.03	598.04	-160.2	-241.27	696.73	-156.82	-278.26	513.37	-157.5	-263.66	509.95	-0.61088	-208.64	393.72	-89.636	-244.11	302.67	-126.39	-217.41	311.65	-70.743	-172.51	36.82	-40.546	-480.36	319.07	132.26	-234.19	227.09	-54.741	-358.05	592.49	225.5	-553.12	274.36	120.48	-120.32	30.496	-77.407	-361.14	483.41	64.35	-296.93	680.93	-173.9	-443.11	1110.9	237.06	-373.96	676.78	228.37	-641.35	44.091	122.91	-391.29	761.89	231.12	-663.6	84.171	82.168	-683.56	227.01	58.856	-377.8	490.02	219.99	-404.82	1570.3	-92.438	-767.96	277.64	93.348	-523.1	1370.7	102.42	-237.64	25.816	-120.11	-717.41	245.51	143.08	-561.44	1019.4	30.35	-307.78	83.125	28.289	-516.02	1162.7	0.22432	-451.15	1478.1	-18.981	-543.89	1031	-53.098	-333.48	74.427	-57.626	-485.74	1061.6	-215.96	-384.63	47.724	-0.91957	-396.24	1591.9	52.311
271	1.355	-248.41	1649.1	-83.357	-251.67	1660.6	15.416	-248.69	1402.7	-2.9892	-178.32	1248.1	10.917	-284.39	981.41	-165	-304.25	985.61	192.27	-376	1497.3	155.94	-406.52	1334	280.35	-396.99	1187.7	335.39	-345.6	1044.9	350.97	-304.92	931.87	281.5	-313.99	936.16	362.7	-262.61	862.42	332.11	-355.84	1452.6	-192.59	-395.45	1277.6	-272.15	-416.63	1113.5	-316.12	-395.04	974.36	-324.66	-338.7	853.92	-265.42	-387.5	835.13	-318.34	-325.92	769.68	-301.1	-307.91	691.55	217.01	-392.45	365.77	143.48	-479.81	331.64	190.63	-312.04	762.34	-188.48	-272.32	598.01	-160.51	-237.71	696.41	-157.19	-276.22	513.29	-157.73	-261.94	509.78	-0.86626	-207.27	393.26	-89.829	-243.08	302.32	-126.54	-216.38	311.25	-70.882	-172.51	36.817	-40.629	-465.97	320.44	132.19	-233.49	226.77	-54.829	-346.52	594.53	225.45	-538.31	275.14	120.37	-120.24	30.246	-77.6	-348.59	485.43	64.45	-293.51	681.16	-174.29	-437.9	1111.5	236.8	-363.6	678.6	228.18	-622.92	45.277	123.14	-382.09	763.45	230.8	-645.85	84.631	82.466	-668.32	226.73	58.786	-364.84	492.06	220.04	-398.68	1571.6	-92.198	-753.62	276.07	93.268	-517	1371.6	102.2	-237.68	25.791	-120.18	-702.33	244.77	142.97	-555.3	1020.4	30.07	-307.61	83.134	28.314	-509.95	1163.8	-0.24074	-444.99	1479.2	-18.891	-538.12	1032.2	-53.365	-333.35	74.487	-57.59	-477.29	1062	-217.03	-384.57	47.837	-0.83347	-389.98	1593	52.706
272	1.36	-242.2	1650.2	-83.059	-245.41	1661.5	15.727	-242.63	1403.7	-3.0321	-172.33	1249	10.529	-278.76	982.54	-165.67	-298.32	986.67	192.28	-369.86	1498	156.06	-400.49	1334.5	280.2	-391.37	1188.1	335.1	-341.05	1044.9	350.95	-300.94	931.49	281.77	-310.29	935.92	362.91	-259.25	861.88	332.62	-349.84	1453.8	-192.64	-388.67	1278.9	-272.56	-408.39	1114.6	-317.03	-385.46	975.74	-325.79	-327.91	855.82	-266.79	-376.52	836.6	-319.71	-314.16	771.82	-302.57	-297.77	694.19	216.89	-378.34	367.73	143.44	-465.37	332.71	190.58	-307.99	762.64	-188.9	-269.67	597.98	-160.82	-234.21	696.08	-157.58	-274.23	513.21	-157.95	-260.24	509.61	-1.1149	-205.93	392.82	-90.027	-242.09	301.98	-126.68	-215.38	310.85	-71.024	-172.51	36.814	-40.716	-451.47	321.69	132.13	-232.82	226.46	-54.922	-335.06	596.65	225.39	-523.31	275.7	120.28	-120.16	30.006	-77.796	-336.12	487.52	64.54	-290.16	681.38	-174.68	-432.72	1112.1	236.57	-353.31	680.47	228	-603.92	46.278	123.38	-372.97	765.06	230.49	-627.59	84.774	82.768	-652.77	226.03	58.686	-351.96	494.17	220.07	-392.55	1572.9	-91.93	-739.04	273.95	93.113	-510.91	1372.5	102.01	-237.72	25.764	-120.25	-687.01	243.59	142.81	-549.18	1021.5	29.814	-307.44	83.146	28.341	-503.89	1164.9	-0.70285	-438.84	1480.3	-18.788	-532.37	1033.4	-53.617	-333.21	74.551	-57.553	-468.81	1062.3	-218.11	-384.51	47.953	-0.74696	-383.74	1594	53.132
273	1.365	-236.01	1651.4	-82.726	-239.15	1662.4	16.075	-236.58	1404.6	-3.0471	-166.36	1249.9	10.181	-273.17	983.65	-166.36	-292.41	987.73	192.37	-363.74	1498.6	156.18	-394.46	1335	280.07	-385.78	1188.5	334.83	-336.54	1044.8	350.96	-297	931.12	282.05	-306.62	935.68	363.13	-255.94	861.35	333.15	-343.86	1455.1	-192.68	-381.91	1280.1	-272.94	-400.12	1115.7	-317.93	-375.82	977.15	-326.91	-317.09	857.76	-268.11	-365.46	838.12	-321.09	-302.38	773.99	-303.96	-287.72	696.87	216.79	-364.19	369.67	143.41	-450.86	333.69	190.53	-304	762.91	-189.31	-267.06	597.94	-161.12	-230.76	695.74	-157.97	-272.29	513.13	-158.18	-258.56	509.44	-1.3562	-204.63	392.38	-90.227	-241.13	301.65	-126.83	-214.4	310.47	-71.168	-172.52	36.811	-40.806	-436.88	322.84	132.09	-232.16	226.15	-55.019	-323.68	598.84	225.32	-508.12	276.04	120.21	-120.09	29.776	-77.993	-323.73	489.66	64.616	-286.85	681.57	-175.06	-427.56	1112.6	236.36	-343.1	682.41	227.83	-584.39	47.096	123.64	-363.91	766.71	230.19	-608.85	84.613	83.086	-636.91	224.92	58.564	-339.2	496.33	220.07	-386.44	1574.1	-91.636	-724.21	271.29	92.893	-504.84	1373.3	101.83	-237.77	25.737	-120.32	-671.44	241.97	142.6	-543.07	1022.5	29.583	-307.28	83.163	28.372	-497.85	1166	-1.1604	-432.7	1481.4	-18.675	-526.61	1034.6	-53.858	-333.08	74.618	-57.518	-460.3	1062.7	-219.21	-384.45	48.073	-0.66126	-377.51	1595	53.583
